<svg width="70" height="70" viewBox="0 0 70 70" fill="none" xmlns="http://www.w3.org/2000/svg">
<circle cx="35" cy="35" r="35" fill="#58BEBF" fill-opacity="0.2"/>
<path d="M39.25 20H46V27.5H39.25V20Z" fill="#58BEBF"/>
<path d="M23.5 20H30.25V27.5H23.5V20Z" fill="#58BEBF"/>
<ellipse cx="35.125" cy="41" rx="4.125" ry="3.75" fill="#58BEBF"/>
<path fill-rule="evenodd" clip-rule="evenodd" d="M25.75 41.375C25.75 36.6116 29.7794 32.75 34.75 32.75C39.7206 32.75 43.75 36.6116 43.75 41.375C43.75 46.1384 39.7206 50 34.75 50C29.7794 50 25.75 46.1384 25.75 41.375ZM28.8931 41.375C28.8931 44.4699 31.5205 46.9878 34.75 46.9878C37.9795 46.9878 40.6069 44.4699 40.6069 41.375C40.6069 38.2801 37.9795 35.7622 34.75 35.7622C31.5205 35.7622 28.8931 38.28 28.8931 41.375Z" fill="#58BEBF"/>
<path d="M30.8477 31.3905C31.6222 31.0495 32.4259 30.8114 33.25 30.6768L31.6394 29H25L28.6021 32.75C29.291 32.2009 30.0421 31.7453 30.8477 31.3905V31.3905Z" fill="#58BEBF"/>
<path d="M36.25 30.6768C37.0741 30.8113 37.8778 31.0494 38.6523 31.3905C39.4579 31.7452 40.209 32.2008 40.8979 32.75L44.5 29H37.8606C37.4268 29.4516 36.8201 30.0832 36.25 30.6768V30.6768Z" fill="#58BEBF"/>
</svg>
