<svg width="25" height="19" viewBox="0 0 25 19" fill="none" xmlns="http://www.w3.org/2000/svg">
<path d="M22.7776 0H2.65157C2.32121 0 2.01193 0.0798281 1.73212 0.211406L12.6669 10.9589L15.1177 8.64384C15.1177 8.64384 15.1179 8.64361 15.118 8.64352C15.118 8.64342 15.1182 8.64333 15.1182 8.64333L23.6974 0.211594C23.4175 0.0799219 23.1081 0 22.7776 0Z" fill="#E8E8E8"/>
<path d="M24.7089 1.20605L16.6355 9.14077L24.7087 17.0756C24.8425 16.8006 24.9237 16.4966 24.9237 16.1719V2.10943C24.9237 1.78491 24.8427 1.48098 24.7089 1.20605Z" fill="#E8E8E8"/>
<path d="M0.720523 1.20569C0.586652 1.4807 0.505432 1.78469 0.505432 2.10939V16.1719C0.505432 16.4964 0.586556 16.8004 0.720332 17.0754L8.79378 9.14064L0.720523 1.20569Z" fill="#E8E8E8"/>
<path d="M15.6239 10.135L13.1727 12.4503C13.0329 12.5876 12.8499 12.6563 12.6669 12.6563C12.4839 12.6563 12.3008 12.5876 12.1611 12.4503L9.80534 10.1349L1.73175 18.0697C2.01161 18.2013 2.32108 18.2812 2.65154 18.2812H22.7776C23.1079 18.2812 23.4172 18.2014 23.697 18.0698L15.6239 10.135Z" fill="#E8E8E8"/>
</svg>
